<?xml version="1.0" encoding="utf-8"?>
<!-- Generator: Adobe Illustrator 28.0.0, SVG Export Plug-In . SVG Version: 6.00 Build 0)  -->
<svg version="1.1" id="Layer_1" xmlns="http://www.w3.org/2000/svg" xmlns:xlink="http://www.w3.org/1999/xlink" x="0px" y="0px"
	 viewBox="0 0 512 512" style="enable-background:new 0 0 512 512;" xml:space="preserve">
<g>
	<path d="M302.55,436.72c43.91-0.03,77.29,0.09,105.25-3.62c13.98-1.89,26.72-4.79,38.53-9.64c11.79-4.82,22.58-11.77,31.59-20.83
		l0,0c9.06-9.01,16.01-19.8,20.83-31.59c7.26-17.77,10.21-37.41,11.77-60.6c1.51-23.22,1.48-50.26,1.49-83.18
		c-0.03-43.91,0.09-77.29-3.62-105.25c-1.89-13.98-4.79-26.72-9.64-38.53c-4.82-11.79-11.77-22.58-20.83-31.59
		c-9.01-9.05-19.8-16.01-31.59-20.83c-17.77-7.26-37.41-10.21-60.6-11.77c-23.22-1.51-50.26-1.48-83.18-1.49h-93.09
		c-43.91,0.03-77.29-0.09-105.25,3.62c-13.98,1.89-26.72,4.79-38.53,9.64c-11.8,4.82-22.58,11.78-31.6,20.83
		c-9.06,9.01-16.01,19.8-20.83,31.59C6,101.26,3.04,120.9,1.49,144.09c-1.51,23.22-1.48,50.26-1.49,83.18
		c0.03,43.91-0.09,77.29,3.62,105.25c1.89,13.98,4.79,26.72,9.64,38.53c4.82,11.79,11.77,22.58,20.83,31.59l0,0
		c10.05,10.11,22.3,17.55,35.71,22.43c13.44,4.92,27.99,7.56,44.3,9.18c12.79,1.26,24.18-8.09,25.44-20.88
		c1.26-12.79-8.09-24.18-20.88-25.44c-13.95-1.36-24.71-3.56-32.82-6.55c-8.14-3.03-13.68-6.55-18.83-11.64l0,0
		c-4.58-4.62-7.85-9.54-10.7-16.39c-4.25-10.19-7.04-25.1-8.36-45.93c-1.37-20.8-1.4-47.24-1.39-80.14
		c-0.03-43.85,0.09-76.31,3.2-99.05c1.52-11.37,3.74-20.2,6.55-27.03c2.85-6.85,6.12-11.77,10.7-16.39
		c4.62-4.58,9.54-7.85,16.39-10.7c10.19-4.25,25.1-7.04,45.93-8.36c20.79-1.37,47.24-1.4,80.15-1.39h93.09
		c43.85-0.03,76.31,0.09,99.05,3.2c11.37,1.52,20.2,3.74,27.03,6.55c6.85,2.85,11.77,6.12,16.39,10.7
		c4.58,4.62,7.85,9.54,10.7,16.39c4.25,10.19,7.04,25.1,8.36,45.93c1.37,20.79,1.4,47.24,1.39,80.15
		c0.03,43.85-0.09,76.31-3.2,99.04c-1.52,11.37-3.74,20.2-6.55,27.03c-2.85,6.85-6.12,11.77-10.7,16.39l0,0
		c-4.62,4.58-9.54,7.85-16.39,10.7c-10.19,4.25-25.1,7.04-45.93,8.36c-20.8,1.37-47.24,1.4-80.14,1.39
		c-12.85,0-23.27,10.42-23.27,23.27S289.69,436.72,302.55,436.72L302.55,436.72z"/>
	<path d="M230.22,179.2c5.11-10.23,9.51-15.82,12.58-18.14c3.1-2.23,5.24-3.41,13.2-3.61c8.27,0.12,13.1,2.83,17.09,6.95
		c3.9,4.13,6.22,10.2,6.18,15.82l-0.24,3.79l-0.14,0.64l1.21,0.49l-1.09-0.73l-0.13,0.24l1.21,0.49l-1.09-0.73l-1.43,1.36
		c-3.65,3.3-16.07,10.11-34.4,22.08l-10.46,6.9v35.8c0,12.85,10.42,23.27,23.27,23.27s23.27-10.42,23.27-23.27v-23.27H256
		l12.81,19.43c16.67-11.1,27.55-16.33,38.38-25.02c5.34-4.35,10.9-10.49,14.27-18.21c3.41-7.7,4.36-15.64,4.36-23.26
		c-0.04-17.4-6.49-34.35-18.61-47.48c-12.03-13.15-30.47-21.94-51.21-21.83c-15.31-0.2-30.64,4.37-42.08,13.65
		c-11.48,9.19-18.71,20.86-25.24,33.64c-5.8,11.47-1.2,25.47,10.27,31.27C210.43,195.27,224.42,190.67,230.22,179.2L230.22,179.2z
		 M232.73,308.72v11.64c0,12.85,10.42,23.27,23.27,23.27s23.27-10.42,23.27-23.27v-11.64c0-12.85-10.42-23.27-23.27-23.27
		S232.73,295.87,232.73,308.72z"/>
	<path d="M302.55,390.17c-35.04,0.17-69.33,13.41-100.13,29.27l-0.17,0.09l0.17-0.09c-18.51,9.62-33.18,17.21-44.01,22.03
		c-5.39,2.41-9.81,4.12-12.97,5.08c-3.16,0.99-4.96,1.11-4.97,1.1v5.46l1.41-5.23l-1.41-0.24v5.46l1.41-5.23l-2.69,9.97l5.74-8.56
		l-3.06-1.41l-2.69,9.97l5.74-8.56l0,0l-5.07,7.55l7.66-4.97l-2.59-2.58l-5.07,7.55l7.66-4.97l-4.33,2.81l4.65-2.24l-0.33-0.57
		l-4.33,2.81l4.65-2.24l-0.7,0.34l0.73-0.27l-0.03-0.07l-0.7,0.34l0.73-0.27c-0.23-0.33-1.17-4.81-1.09-12.16
		c-0.02-10.72,1.41-27.23,3.4-48.86l0.99-10.84c1.16-12.8-8.27-24.12-21.07-25.28c-12.8-1.16-24.12,8.27-25.28,21.07l-0.99,10.84
		c-1.96,21.71-3.56,38.7-3.59,53.08c0.04,8.67,0.51,16.47,2.77,24.59c2.14,7.93,7.21,17.2,15.97,22.99l0,0
		c6.74,4.59,14.77,6.32,21.48,6.26c13.34-0.27,23.86-4.58,36.92-10.21c12.92-5.78,27.93-13.6,46.48-23.22l0,0
		c27.09-14.2,56.16-24.2,78.67-24.03c12.85,0,23.27-10.42,23.27-23.27S315.4,390.17,302.55,390.17L302.55,390.17z"/>
</g>
</svg>
